<mxfile host="app.diagrams.net" modified="2022-06-01T15:40:47.201Z" agent="5.0 (Windows NT 10.0; Win64; x64) AppleWebKit/537.36 (KHTML, like Gecko) Chrome/102.0.5005.63 Safari/537.36 Edg/102.0.1245.30" etag="PHkdhMtVSiZoLp0OZTIk" version="18.2.0" type="github">
  <diagram id="kgpKYQtTHZ0yAKxKKP6v" name="Page-1">
    <mxGraphModel dx="580" dy="376" grid="1" gridSize="10" guides="1" tooltips="1" connect="1" arrows="1" fold="1" page="1" pageScale="1" pageWidth="1200" pageHeight="1600" math="0" shadow="0">
      <root>
        <mxCell id="0" />
        <mxCell id="1" parent="0" />
        <mxCell id="3nuBFxr9cyL0pnOWT2aG-1" value="Kotlin SDK" style="shape=umlLifeline;perimeter=lifelinePerimeter;container=1;collapsible=0;recursiveResize=0;rounded=0;shadow=0;strokeWidth=1;" parent="1" vertex="1">
          <mxGeometry x="120" y="80" width="100" height="300" as="geometry" />
        </mxCell>
        <mxCell id="3nuBFxr9cyL0pnOWT2aG-2" value="" style="points=[];perimeter=orthogonalPerimeter;rounded=0;shadow=0;strokeWidth=1;" parent="3nuBFxr9cyL0pnOWT2aG-1" vertex="1">
          <mxGeometry x="45" y="70" width="10" height="70" as="geometry" />
        </mxCell>
        <mxCell id="3nuBFxr9cyL0pnOWT2aG-5" value="Apollo Server" style="shape=umlLifeline;perimeter=lifelinePerimeter;container=1;collapsible=0;recursiveResize=0;rounded=0;shadow=0;strokeWidth=1;" parent="1" vertex="1">
          <mxGeometry x="300" y="80" width="100" height="300" as="geometry" />
        </mxCell>
        <mxCell id="3nuBFxr9cyL0pnOWT2aG-6" value="" style="points=[];perimeter=orthogonalPerimeter;rounded=0;shadow=0;strokeWidth=1;" parent="3nuBFxr9cyL0pnOWT2aG-5" vertex="1">
          <mxGeometry x="45" y="80" width="10" height="40" as="geometry" />
        </mxCell>
        <mxCell id="g_sVcXkw2FIiY0kDSRiK-44" value="9.显示操作结果" style="html=1;verticalAlign=bottom;endArrow=open;dashed=1;endSize=8;rounded=0;" edge="1" parent="3nuBFxr9cyL0pnOWT2aG-5" target="3nuBFxr9cyL0pnOWT2aG-1">
          <mxGeometry relative="1" as="geometry">
            <mxPoint x="45" y="110" as="sourcePoint" />
            <mxPoint x="-35" y="110" as="targetPoint" />
          </mxGeometry>
        </mxCell>
        <mxCell id="3nuBFxr9cyL0pnOWT2aG-8" value="2.发送GraphQL请求" style="verticalAlign=bottom;endArrow=block;shadow=0;strokeWidth=1;" parent="1" source="3nuBFxr9cyL0pnOWT2aG-2" edge="1">
          <mxGeometry relative="1" as="geometry">
            <mxPoint x="275" y="160" as="sourcePoint" />
            <mxPoint x="340" y="170" as="targetPoint" />
            <Array as="points">
              <mxPoint x="260" y="170" />
              <mxPoint x="340" y="170" />
            </Array>
          </mxGeometry>
        </mxCell>
        <mxCell id="g_sVcXkw2FIiY0kDSRiK-23" value="Apollo Resolver" style="shape=umlLifeline;perimeter=lifelinePerimeter;whiteSpace=wrap;html=1;container=1;collapsible=0;recursiveResize=0;outlineConnect=0;" vertex="1" parent="1">
          <mxGeometry x="490" y="80" width="100" height="300" as="geometry" />
        </mxCell>
        <mxCell id="g_sVcXkw2FIiY0kDSRiK-28" value="" style="html=1;points=[];perimeter=orthogonalPerimeter;" vertex="1" parent="g_sVcXkw2FIiY0kDSRiK-23">
          <mxGeometry x="45" y="65" width="10" height="70" as="geometry" />
        </mxCell>
        <mxCell id="g_sVcXkw2FIiY0kDSRiK-25" value="已鉴权客户" style="shape=umlLifeline;participant=umlActor;perimeter=lifelinePerimeter;whiteSpace=wrap;html=1;container=1;collapsible=0;recursiveResize=0;verticalAlign=middle;spacingTop=36;outlineConnect=0;horizontal=0;labelPosition=center;verticalLabelPosition=middle;align=center;" vertex="1" parent="1">
          <mxGeometry x="30" y="80" width="20" height="300" as="geometry" />
        </mxCell>
        <mxCell id="g_sVcXkw2FIiY0kDSRiK-26" value="Database&lt;br&gt;Controller" style="shape=umlLifeline;perimeter=lifelinePerimeter;whiteSpace=wrap;html=1;container=1;collapsible=0;recursiveResize=0;outlineConnect=0;" vertex="1" parent="1">
          <mxGeometry x="670" y="80" width="100" height="300" as="geometry" />
        </mxCell>
        <mxCell id="g_sVcXkw2FIiY0kDSRiK-30" value="" style="html=1;points=[];perimeter=orthogonalPerimeter;" vertex="1" parent="g_sVcXkw2FIiY0kDSRiK-26">
          <mxGeometry x="45" y="65" width="10" height="65" as="geometry" />
        </mxCell>
        <mxCell id="g_sVcXkw2FIiY0kDSRiK-41" value="6.返回修改结果" style="html=1;verticalAlign=bottom;endArrow=open;dashed=1;endSize=8;rounded=0;" edge="1" parent="g_sVcXkw2FIiY0kDSRiK-26" source="g_sVcXkw2FIiY0kDSRiK-32">
          <mxGeometry relative="1" as="geometry">
            <mxPoint x="135" y="120" as="sourcePoint" />
            <mxPoint x="55" y="120" as="targetPoint" />
          </mxGeometry>
        </mxCell>
        <mxCell id="3nuBFxr9cyL0pnOWT2aG-3" value="1.创建时间片" style="verticalAlign=bottom;startArrow=oval;endArrow=block;startSize=8;shadow=0;strokeWidth=1;" parent="1" edge="1">
          <mxGeometry relative="1" as="geometry">
            <mxPoint x="38.81034482758605" y="160" as="sourcePoint" />
            <mxPoint x="164" y="160" as="targetPoint" />
            <Array as="points">
              <mxPoint x="79" y="160" />
            </Array>
          </mxGeometry>
        </mxCell>
        <mxCell id="g_sVcXkw2FIiY0kDSRiK-29" value="3.请求解析" style="edgeStyle=orthogonalEdgeStyle;rounded=0;orthogonalLoop=1;jettySize=auto;html=1;verticalAlign=bottom;" edge="1" parent="1" source="3nuBFxr9cyL0pnOWT2aG-6" target="g_sVcXkw2FIiY0kDSRiK-28">
          <mxGeometry relative="1" as="geometry" />
        </mxCell>
        <mxCell id="g_sVcXkw2FIiY0kDSRiK-31" value="4.修改数据库时间片实体" style="edgeStyle=orthogonalEdgeStyle;rounded=0;orthogonalLoop=1;jettySize=auto;html=1;verticalAlign=bottom;" edge="1" parent="1" target="g_sVcXkw2FIiY0kDSRiK-30">
          <mxGeometry relative="1" as="geometry">
            <mxPoint x="550" y="177" as="sourcePoint" />
          </mxGeometry>
        </mxCell>
        <mxCell id="g_sVcXkw2FIiY0kDSRiK-32" value="Database" style="shape=umlLifeline;perimeter=lifelinePerimeter;whiteSpace=wrap;html=1;container=1;collapsible=0;recursiveResize=0;outlineConnect=0;" vertex="1" parent="1">
          <mxGeometry x="890" y="80" width="100" height="300" as="geometry" />
        </mxCell>
        <mxCell id="g_sVcXkw2FIiY0kDSRiK-33" value="" style="html=1;points=[];perimeter=orthogonalPerimeter;" vertex="1" parent="g_sVcXkw2FIiY0kDSRiK-32">
          <mxGeometry x="45" y="70" width="10" height="60" as="geometry" />
        </mxCell>
        <object label="5.修改时间片" id="g_sVcXkw2FIiY0kDSRiK-34">
          <mxCell style="edgeStyle=orthogonalEdgeStyle;rounded=0;orthogonalLoop=1;jettySize=auto;verticalAlign=bottom;exitX=0.896;exitY=0.417;exitDx=0;exitDy=0;exitPerimeter=0;html=1;" edge="1" parent="1" source="g_sVcXkw2FIiY0kDSRiK-30">
            <mxGeometry relative="1" as="geometry">
              <mxPoint x="930" y="173" as="targetPoint" />
            </mxGeometry>
          </mxCell>
        </object>
        <mxCell id="g_sVcXkw2FIiY0kDSRiK-42" value="7.返回处理结果" style="html=1;verticalAlign=bottom;endArrow=open;dashed=1;endSize=8;rounded=0;" edge="1" parent="1">
          <mxGeometry relative="1" as="geometry">
            <mxPoint x="710" y="200" as="sourcePoint" />
            <mxPoint x="550" y="200" as="targetPoint" />
          </mxGeometry>
        </mxCell>
        <mxCell id="g_sVcXkw2FIiY0kDSRiK-43" value="8.返回HTTP响应" style="html=1;verticalAlign=bottom;endArrow=open;dashed=1;endSize=8;rounded=0;" edge="1" parent="1" target="3nuBFxr9cyL0pnOWT2aG-5">
          <mxGeometry relative="1" as="geometry">
            <mxPoint x="530" y="200" as="sourcePoint" />
            <mxPoint x="450" y="200" as="targetPoint" />
          </mxGeometry>
        </mxCell>
      </root>
    </mxGraphModel>
  </diagram>
</mxfile>
